<mxfile host="Electron" modified="2024-01-06T10:34:51.335Z" agent="Mozilla/5.0 (X11; Linux x86_64) AppleWebKit/537.36 (KHTML, like Gecko) draw.io/22.1.2 Chrome/114.0.5735.289 Electron/25.9.4 Safari/537.36" etag="0-zBDc6I1eIAmf3AlFAi" version="22.1.2" type="device">
  <diagram name="Page-1" id="FeZ3v-MQN-1dSdujgbyW">
    <mxGraphModel dx="875" dy="499" grid="1" gridSize="10" guides="1" tooltips="1" connect="1" arrows="1" fold="0" page="1" pageScale="1" pageWidth="827" pageHeight="1169" math="0" shadow="0">
      <root>
        <mxCell id="0" />
        <mxCell id="1" parent="0" />
        <mxCell id="TmtRgNi8QKOu0GkUrQz9-1" value="Context" style="swimlane;fontStyle=1;align=center;verticalAlign=top;childLayout=stackLayout;horizontal=1;startSize=26;horizontalStack=0;resizeParent=1;resizeParentMax=0;resizeLast=0;collapsible=1;marginBottom=0;whiteSpace=wrap;html=1;" vertex="1" parent="1">
          <mxGeometry x="200" y="230" width="160" height="138" as="geometry" />
        </mxCell>
        <mxCell id="TmtRgNi8QKOu0GkUrQz9-15" value="stateA: List&amp;lt;Workpiece&amp;gt;" style="text;strokeColor=none;fillColor=none;align=left;verticalAlign=top;spacingLeft=4;spacingRight=4;overflow=hidden;rotatable=0;points=[[0,0.5],[1,0.5]];portConstraint=eastwest;whiteSpace=wrap;html=1;" vertex="1" parent="TmtRgNi8QKOu0GkUrQz9-1">
          <mxGeometry y="26" width="160" height="26" as="geometry" />
        </mxCell>
        <mxCell id="TmtRgNi8QKOu0GkUrQz9-16" value="stateB: List&amp;lt;Workpiece&amp;gt;" style="text;strokeColor=none;fillColor=none;align=left;verticalAlign=top;spacingLeft=4;spacingRight=4;overflow=hidden;rotatable=0;points=[[0,0.5],[1,0.5]];portConstraint=eastwest;whiteSpace=wrap;html=1;" vertex="1" parent="TmtRgNi8QKOu0GkUrQz9-1">
          <mxGeometry y="52" width="160" height="26" as="geometry" />
        </mxCell>
        <mxCell id="TmtRgNi8QKOu0GkUrQz9-17" value="" style="line;strokeWidth=1;fillColor=none;align=left;verticalAlign=middle;spacingTop=-1;spacingLeft=3;spacingRight=3;rotatable=0;labelPosition=right;points=[];portConstraint=eastwest;strokeColor=inherit;" vertex="1" parent="TmtRgNi8QKOu0GkUrQz9-1">
          <mxGeometry y="78" width="160" height="8" as="geometry" />
        </mxCell>
        <mxCell id="TmtRgNi8QKOu0GkUrQz9-2" value="Request()" style="text;strokeColor=none;fillColor=none;align=left;verticalAlign=top;spacingLeft=4;spacingRight=4;overflow=hidden;rotatable=0;points=[[0,0.5],[1,0.5]];portConstraint=eastwest;whiteSpace=wrap;html=1;" vertex="1" parent="TmtRgNi8QKOu0GkUrQz9-1">
          <mxGeometry y="86" width="160" height="26" as="geometry" />
        </mxCell>
        <mxCell id="TmtRgNi8QKOu0GkUrQz9-3" value="ChangeState()" style="text;strokeColor=none;fillColor=none;align=left;verticalAlign=top;spacingLeft=4;spacingRight=4;overflow=hidden;rotatable=0;points=[[0,0.5],[1,0.5]];portConstraint=eastwest;whiteSpace=wrap;html=1;" vertex="1" parent="TmtRgNi8QKOu0GkUrQz9-1">
          <mxGeometry y="112" width="160" height="26" as="geometry" />
        </mxCell>
        <mxCell id="TmtRgNi8QKOu0GkUrQz9-4" value="Workpiece" style="swimlane;fontStyle=1;align=center;verticalAlign=top;childLayout=stackLayout;horizontal=1;startSize=26;horizontalStack=0;resizeParent=1;resizeParentMax=0;resizeLast=0;collapsible=1;marginBottom=0;whiteSpace=wrap;html=1;" vertex="1" parent="1">
          <mxGeometry x="480" y="230" width="120" height="78" as="geometry" />
        </mxCell>
        <mxCell id="TmtRgNi8QKOu0GkUrQz9-5" value="Request()" style="text;strokeColor=none;fillColor=none;align=left;verticalAlign=top;spacingLeft=4;spacingRight=4;overflow=hidden;rotatable=0;points=[[0,0.5],[1,0.5]];portConstraint=eastwest;whiteSpace=wrap;html=1;" vertex="1" parent="TmtRgNi8QKOu0GkUrQz9-4">
          <mxGeometry y="26" width="120" height="26" as="geometry" />
        </mxCell>
        <mxCell id="TmtRgNi8QKOu0GkUrQz9-6" value="ChangeState(state)" style="text;strokeColor=none;fillColor=none;align=left;verticalAlign=top;spacingLeft=4;spacingRight=4;overflow=hidden;rotatable=0;points=[[0,0.5],[1,0.5]];portConstraint=eastwest;whiteSpace=wrap;html=1;" vertex="1" parent="TmtRgNi8QKOu0GkUrQz9-4">
          <mxGeometry y="52" width="120" height="26" as="geometry" />
        </mxCell>
        <mxCell id="TmtRgNi8QKOu0GkUrQz9-7" value="&lt;font style=&quot;font-size: 10px;&quot; face=&quot;Courier New&quot;&gt;state-&amp;gt;Handle();&lt;/font&gt;" style="shape=note;whiteSpace=wrap;html=1;backgroundOutline=1;darkOpacity=0.05;size=11;" vertex="1" parent="1">
          <mxGeometry x="612" y="256" width="110" height="26" as="geometry" />
        </mxCell>
        <mxCell id="TmtRgNi8QKOu0GkUrQz9-8" style="rounded=0;orthogonalLoop=1;jettySize=auto;html=1;endArrow=oval;endFill=0;exitX=0;exitY=0.5;exitDx=0;exitDy=0;exitPerimeter=0;" edge="1" parent="1" source="TmtRgNi8QKOu0GkUrQz9-7">
          <mxGeometry relative="1" as="geometry">
            <mxPoint x="551" y="269" as="targetPoint" />
            <mxPoint x="611" y="269" as="sourcePoint" />
          </mxGeometry>
        </mxCell>
        <mxCell id="TmtRgNi8QKOu0GkUrQz9-9" value="&lt;span style=&quot;font-size: 10px;&quot;&gt;Move all Workpieces to next state list. Handle reassigment of state instances.&lt;/span&gt;" style="shape=note;whiteSpace=wrap;html=1;backgroundOutline=1;darkOpacity=0.05;size=11;align=left;spacingLeft=4;verticalAlign=top;spacingRight=4;" vertex="1" parent="1">
          <mxGeometry x="370" y="347" width="150" height="53" as="geometry" />
        </mxCell>
        <mxCell id="TmtRgNi8QKOu0GkUrQz9-10" style="rounded=0;orthogonalLoop=1;jettySize=auto;html=1;endArrow=oval;endFill=0;" edge="1" parent="1">
          <mxGeometry relative="1" as="geometry">
            <mxPoint x="310" y="355" as="targetPoint" />
            <mxPoint x="370" y="355" as="sourcePoint" />
          </mxGeometry>
        </mxCell>
        <mxCell id="TmtRgNi8QKOu0GkUrQz9-18" value="&lt;font style=&quot;font-size: 10px;&quot; face=&quot;Courier New&quot;&gt;state...-&amp;gt;Each(w.Request());&lt;/font&gt;" style="shape=note;whiteSpace=wrap;html=1;backgroundOutline=1;darkOpacity=0.05;size=11;align=left;spacingLeft=4;" vertex="1" parent="1">
          <mxGeometry x="370" y="317" width="190" height="26" as="geometry" />
        </mxCell>
        <mxCell id="TmtRgNi8QKOu0GkUrQz9-19" style="rounded=0;orthogonalLoop=1;jettySize=auto;html=1;endArrow=oval;endFill=0;exitX=0;exitY=0.5;exitDx=0;exitDy=0;exitPerimeter=0;" edge="1" parent="1" source="TmtRgNi8QKOu0GkUrQz9-18">
          <mxGeometry relative="1" as="geometry">
            <mxPoint x="310" y="330" as="targetPoint" />
            <mxPoint x="370" y="330" as="sourcePoint" />
          </mxGeometry>
        </mxCell>
        <mxCell id="TmtRgNi8QKOu0GkUrQz9-20" style="rounded=0;orthogonalLoop=1;jettySize=auto;html=1;endArrow=blockThin;endFill=1;startArrow=diamondThin;startFill=0;startSize=10;" edge="1" parent="1">
          <mxGeometry relative="1" as="geometry">
            <mxPoint x="360" y="245" as="sourcePoint" />
            <mxPoint x="480" y="245" as="targetPoint" />
          </mxGeometry>
        </mxCell>
      </root>
    </mxGraphModel>
  </diagram>
</mxfile>
